G04*
G04 #@! TF.GenerationSoftware,Altium Limited,Altium Designer,24.1.2 (44)*
G04*
G04 Layer_Physical_Order=2*
G04 Layer_Color=32768*
%FSLAX44Y44*%
%MOMM*%
G71*
G04*
G04 #@! TF.SameCoordinates,CB13D785-5938-4027-9B75-91E117B44D59*
G04*
G04*
G04 #@! TF.FilePolarity,Negative*
G04*
G01*
G75*
%ADD14C,0.2540*%
%ADD57C,1.0160*%
%ADD58O,2.2675X1.5160*%
%ADD59C,4.2160*%
%ADD60C,2.1660*%
%ADD61C,1.7760*%
G04:AMPARAMS|DCode=62|XSize=2.284mm|YSize=2.284mm|CornerRadius=0mm|HoleSize=0mm|Usage=FLASHONLY|Rotation=0.000|XOffset=0mm|YOffset=0mm|HoleType=Round|Shape=Relief|Width=0.254mm|Gap=0.254mm|Entries=4|*
%AMTHD62*
7,0,0,2.2840,1.7760,0.2540,45*
%
%ADD62THD62*%
G04:AMPARAMS|DCode=63|XSize=2.674mm|YSize=2.674mm|CornerRadius=0mm|HoleSize=0mm|Usage=FLASHONLY|Rotation=0.000|XOffset=0mm|YOffset=0mm|HoleType=Round|Shape=Relief|Width=0.254mm|Gap=0.254mm|Entries=4|*
%AMTHD63*
7,0,0,2.6740,2.1660,0.2540,45*
%
%ADD63THD63*%
%ADD64C,1.3160*%
G04:AMPARAMS|DCode=65|XSize=1.824mm|YSize=1.824mm|CornerRadius=0mm|HoleSize=0mm|Usage=FLASHONLY|Rotation=0.000|XOffset=0mm|YOffset=0mm|HoleType=Round|Shape=Relief|Width=0.254mm|Gap=0.254mm|Entries=4|*
%AMTHD65*
7,0,0,1.8240,1.3160,0.2540,45*
%
%ADD65THD65*%
D14*
X682486Y-650D02*
Y41420D01*
X510540Y269000D02*
X535940Y269240D01*
X256540Y269000D02*
X510540D01*
X256540D02*
Y365760D01*
X758000Y42000D02*
Y52000D01*
X505460Y365760D02*
X678801D01*
X682486Y41420D01*
X0Y365760D02*
X505460D01*
Y281940D02*
Y365760D01*
Y281940D02*
X535940D01*
Y269240D02*
Y281940D01*
X762000Y419100D02*
Y508000D01*
Y0D02*
Y365760D01*
X676910Y0D02*
X762000D01*
X0Y365760D02*
Y508000D01*
X762000D01*
D57*
X0Y0D02*
Y508000D01*
X762000D01*
Y0D02*
Y508000D01*
X0Y0D02*
X762000D01*
D58*
X16510Y86360D02*
D03*
Y157860D02*
D03*
D59*
X36830Y36830D02*
D03*
X541020Y471170D02*
D03*
Y36830D02*
D03*
X36830Y471170D02*
D03*
X715400Y470900D02*
D03*
X601100D02*
D03*
Y36500D02*
D03*
X715400D02*
D03*
D60*
X561340Y184150D02*
D03*
Y209550D02*
D03*
X300990Y288290D02*
D03*
X662000Y337000D02*
D03*
X636600D02*
D03*
X457200Y254000D02*
D03*
Y228600D02*
D03*
Y203200D02*
D03*
Y177800D02*
D03*
Y152400D02*
D03*
Y127000D02*
D03*
X45720Y265430D02*
D03*
Y240030D02*
D03*
X152400Y254000D02*
D03*
Y228600D02*
D03*
Y203200D02*
D03*
Y177800D02*
D03*
Y152400D02*
D03*
Y127000D02*
D03*
Y101600D02*
D03*
X547370Y407670D02*
D03*
D61*
X702700Y407400D02*
D03*
X690000Y382000D02*
D03*
X677300Y407400D02*
D03*
X664600Y382000D02*
D03*
X651900Y407400D02*
D03*
X639200Y382000D02*
D03*
X626500Y407400D02*
D03*
X613800Y100000D02*
D03*
X626500Y125400D02*
D03*
X639200Y100000D02*
D03*
X651900Y125400D02*
D03*
X664600Y100000D02*
D03*
X677300Y125400D02*
D03*
X690000Y100000D02*
D03*
D62*
X613800Y382000D02*
D03*
X702700Y125400D02*
D03*
D63*
X275590Y288290D02*
D03*
X457200Y101600D02*
D03*
X521970Y407670D02*
D03*
D64*
X63500Y102870D02*
D03*
X199390Y99805D02*
D03*
Y94035D02*
D03*
X58150Y121650D02*
D03*
X62230Y125730D02*
D03*
X303530Y116840D02*
D03*
X281940D02*
D03*
Y66040D02*
D03*
X406400Y115570D02*
D03*
Y101600D02*
D03*
X220980Y165100D02*
D03*
X596900Y269240D02*
D03*
X650240Y260350D02*
D03*
X549910Y322580D02*
D03*
X424180Y383540D02*
D03*
X303530Y66040D02*
D03*
X518160Y320040D02*
D03*
X389890Y168910D02*
D03*
X406400Y201930D02*
D03*
X303530Y223520D02*
D03*
X410210Y46990D02*
D03*
X478790Y72390D02*
D03*
X467360Y339090D02*
D03*
X405130Y280670D02*
D03*
X341630Y326390D02*
D03*
X313690Y426720D02*
D03*
X106680Y309880D02*
D03*
X160020D02*
D03*
X139700Y430530D02*
D03*
X650240Y171450D02*
D03*
X600710Y189230D02*
D03*
D65*
X407670Y429260D02*
D03*
X336550Y386080D02*
D03*
X170180Y384810D02*
D03*
X466090Y312420D02*
D03*
X378460Y344170D02*
D03*
X335280Y350520D02*
D03*
X414020Y245110D02*
D03*
X240030D02*
D03*
X480060Y48260D02*
D03*
X171450Y349250D02*
D03*
M02*
