G04*
G04 #@! TF.GenerationSoftware,Altium Limited,Altium Designer,24.1.2 (44)*
G04*
G04 Layer_Color=32896*
%FSLAX44Y44*%
%MOMM*%
G71*
G04*
G04 #@! TF.SameCoordinates,CB13D785-5938-4027-9B75-91E117B44D59*
G04*
G04*
G04 #@! TF.FilePolarity,Positive*
G04*
G01*
G75*
%ADD14C,0.2540*%
D14*
X245113Y487675D02*
X250192D01*
X247652D01*
Y474979D01*
X250192Y472440D01*
X252731D01*
X255270Y474979D01*
X240035Y487675D02*
Y472440D01*
X229878D01*
X214643Y485136D02*
X217182Y487675D01*
X222261D01*
X224800Y485136D01*
Y474979D01*
X222261Y472440D01*
X217182D01*
X214643Y474979D01*
X199408Y487675D02*
X204486D01*
X201947D01*
Y474979D01*
X204486Y472440D01*
X207026D01*
X209565Y474979D01*
X194330Y487675D02*
Y472440D01*
X184173D01*
X168938Y485136D02*
X171477Y487675D01*
X176556D01*
X179095Y485136D01*
Y474979D01*
X176556Y472440D01*
X171477D01*
X168938Y474979D01*
X153703Y487675D02*
X158781D01*
X156242D01*
Y474979D01*
X158781Y472440D01*
X161320D01*
X163860Y474979D01*
X148624Y487675D02*
Y472440D01*
X138468D01*
X123233Y485136D02*
X125772Y487675D01*
X130850D01*
X133389Y485136D01*
Y474979D01*
X130850Y472440D01*
X125772D01*
X123233Y474979D01*
X107998Y487675D02*
X113076D01*
X110537D01*
Y474979D01*
X113076Y472440D01*
X115615D01*
X118154Y474979D01*
X102919Y487675D02*
Y472440D01*
X92763D01*
X77527Y485136D02*
X80067Y487675D01*
X85145D01*
X87684Y485136D01*
Y474979D01*
X85145Y472440D01*
X80067D01*
X77527Y474979D01*
M02*
