G04*
G04 #@! TF.GenerationSoftware,Altium Limited,Altium Designer,24.1.2 (44)*
G04*
G04 Layer_Color=65535*
%FSLAX44Y44*%
%MOMM*%
G71*
G04*
G04 #@! TF.SameCoordinates,CB13D785-5938-4027-9B75-91E117B44D59*
G04*
G04*
G04 #@! TF.FilePolarity,Positive*
G04*
G01*
G75*
%ADD10C,0.2000*%
%ADD11C,0.4000*%
%ADD12C,0.6000*%
%ADD13C,0.2500*%
%ADD14C,0.2540*%
%ADD15C,0.1000*%
%ADD16C,0.1270*%
D10*
X61010Y135110D02*
G03*
X61010Y135110I-1000J0D01*
G01*
X127680Y332460D02*
G03*
X127680Y332460I-1000J0D01*
G01*
X300920Y328790D02*
G03*
X300920Y328790I-1000J0D01*
G01*
X408260Y29420D02*
G03*
X408260Y29420I-1000J0D01*
G01*
X44010Y154560D02*
Y159110D01*
Y85110D02*
Y89660D01*
X28960Y85110D02*
X44010D01*
X-11490D02*
X4060D01*
X28960Y159110D02*
X44010D01*
X-11490D02*
X4060D01*
X-11490Y85110D02*
Y159110D01*
X58180Y387960D02*
X93180D01*
X58180Y322960D02*
X93180D01*
X58180Y376460D02*
Y387960D01*
Y322960D02*
Y334460D01*
X231420Y384290D02*
X266420D01*
X231420Y319290D02*
X266420D01*
X231420Y372790D02*
Y384290D01*
Y319290D02*
Y330790D01*
X535930Y257440D02*
X566430D01*
X535930Y306440D02*
X566430D01*
Y257440D02*
Y306440D01*
X535930Y257440D02*
Y306440D01*
D11*
X749150Y407400D02*
G03*
X749150Y407400I-2000J0D01*
G01*
X571350Y100000D02*
G03*
X571350Y100000I-2000J0D01*
G01*
D12*
X548930Y296440D02*
G03*
X548930Y296440I-3000J0D01*
G01*
D13*
X525430Y309490D02*
G03*
X525430Y309490I-1250J0D01*
G01*
D14*
X535940Y234950D02*
X586740D01*
X535940Y159550D02*
X586740D01*
Y234950D01*
X535940Y159550D02*
Y234950D01*
X354330Y375920D02*
Y391160D01*
X346710Y383540D02*
X361950D01*
X250190Y262890D02*
X325590D01*
X250190Y313690D02*
X325590D01*
Y262890D02*
Y313690D01*
X250190Y262890D02*
Y313690D01*
X346710Y222250D02*
X361950D01*
X354330Y214630D02*
Y229870D01*
X346710Y295910D02*
X361950D01*
X354330Y288290D02*
Y303530D01*
X611200Y311600D02*
Y362400D01*
X686600Y311600D02*
Y362400D01*
X611200D02*
X686600D01*
X611200Y311600D02*
X686600D01*
X431800Y76200D02*
X482600D01*
X431800Y279400D02*
X482600D01*
X431800Y76200D02*
Y279400D01*
X482600Y76200D02*
Y279400D01*
X20320Y214630D02*
X71120D01*
X20320Y290030D02*
X71120D01*
X20320Y214630D02*
Y290030D01*
X71120Y214630D02*
Y290030D01*
X127000Y76200D02*
X177800D01*
X127000Y279400D02*
X177800D01*
X127000Y76200D02*
Y279400D01*
X177800Y76200D02*
Y279400D01*
X496570Y382270D02*
X571970D01*
X496570Y433070D02*
X571970D01*
Y382270D02*
Y433070D01*
X496570Y382270D02*
Y433070D01*
X685067Y236864D02*
X669832D01*
Y244481D01*
X672372Y247020D01*
X677450D01*
X679989Y244481D01*
Y236864D01*
Y241942D02*
X685067Y247020D01*
X672372Y252099D02*
X669832Y254638D01*
Y259716D01*
X672372Y262255D01*
X674911D01*
X677450Y259716D01*
Y257177D01*
Y259716D01*
X679989Y262255D01*
X682528D01*
X685067Y259716D01*
Y254638D01*
X682528Y252099D01*
X530860Y200660D02*
X515625D01*
Y208277D01*
X518164Y210817D01*
X523242D01*
X525782Y208277D01*
Y200660D01*
Y205738D02*
X530860Y210817D01*
X515625Y215895D02*
X530860Y226052D01*
X515625D02*
X530860Y215895D01*
X515625Y168910D02*
Y179067D01*
Y173988D01*
X530860D01*
X515625Y184145D02*
X530860Y194302D01*
X515625D02*
X530860Y184145D01*
X76200Y448308D02*
Y463543D01*
X83818D01*
X86357Y461004D01*
Y455926D01*
X83818Y453387D01*
X76200D01*
X91435Y458465D02*
Y448308D01*
Y453387D01*
X93974Y455926D01*
X96513Y458465D01*
X99053D01*
X109209Y448308D02*
X114288D01*
X116827Y450848D01*
Y455926D01*
X114288Y458465D01*
X109209D01*
X106670Y455926D01*
Y450848D01*
X109209Y448308D01*
X121905Y443230D02*
X124444D01*
X126984Y445769D01*
Y458465D01*
X144758Y448308D02*
X139679D01*
X137140Y450848D01*
Y455926D01*
X139679Y458465D01*
X144758D01*
X147297Y455926D01*
Y453387D01*
X137140D01*
X162532Y458465D02*
X154915D01*
X152375Y455926D01*
Y450848D01*
X154915Y448308D01*
X162532D01*
X170150Y461004D02*
Y458465D01*
X167610D01*
X172689D01*
X170150D01*
Y450848D01*
X172689Y448308D01*
X205698Y463543D02*
X195541D01*
Y455926D01*
X200620D01*
X195541D01*
Y448308D01*
X210777D02*
X215855D01*
X213316D01*
Y458465D01*
X210777D01*
X223472Y448308D02*
X231090D01*
X233629Y450848D01*
X231090Y453387D01*
X226012D01*
X223472Y455926D01*
X226012Y458465D01*
X233629D01*
X238707Y463543D02*
Y448308D01*
Y455926D01*
X241247Y458465D01*
X246325D01*
X248864Y455926D01*
Y448308D01*
X269178Y463543D02*
Y448308D01*
X274256Y453387D01*
X279334Y448308D01*
Y463543D01*
X286952Y448308D02*
X292030D01*
X294569Y450848D01*
Y455926D01*
X292030Y458465D01*
X286952D01*
X284413Y455926D01*
Y450848D01*
X286952Y448308D01*
X299648Y458465D02*
Y448308D01*
Y453387D01*
X302187Y455926D01*
X304726Y458465D01*
X307265D01*
X314883Y448308D02*
Y463543D01*
Y453387D02*
X322500Y458465D01*
X314883Y453387D02*
X322500Y448308D01*
X330118D02*
X337735D01*
X340275Y450848D01*
X337735Y453387D01*
X332657D01*
X330118Y455926D01*
X332657Y458465D01*
X340275D01*
X360588Y455926D02*
X370745D01*
X401215Y448308D02*
X391058D01*
X401215Y458465D01*
Y461004D01*
X398676Y463543D01*
X393597D01*
X391058Y461004D01*
X406293D02*
X408832Y463543D01*
X413911D01*
X416450Y461004D01*
Y450848D01*
X413911Y448308D01*
X408832D01*
X406293Y450848D01*
Y461004D01*
X431685Y448308D02*
X421528D01*
X431685Y458465D01*
Y461004D01*
X429146Y463543D01*
X424067D01*
X421528Y461004D01*
X444381Y448308D02*
Y463543D01*
X436763Y455926D01*
X446920D01*
X77470Y472440D02*
Y487675D01*
X87627Y472440D01*
Y487675D01*
X95244Y472440D02*
X100323D01*
X102862Y474979D01*
Y480057D01*
X100323Y482597D01*
X95244D01*
X92705Y480057D01*
Y474979D01*
X95244Y472440D01*
X118097Y487675D02*
Y472440D01*
X110479D01*
X107940Y474979D01*
Y480057D01*
X110479Y482597D01*
X118097D01*
X130793Y472440D02*
X125714D01*
X123175Y474979D01*
Y480057D01*
X125714Y482597D01*
X130793D01*
X133332Y480057D01*
Y477518D01*
X123175D01*
X163802Y485136D02*
X161263Y487675D01*
X156185D01*
X153645Y485136D01*
Y474979D01*
X156185Y472440D01*
X161263D01*
X163802Y474979D01*
X171420Y472440D02*
X176498D01*
X179037Y474979D01*
Y480057D01*
X176498Y482597D01*
X171420D01*
X168880Y480057D01*
Y474979D01*
X171420Y472440D01*
X184116D02*
Y482597D01*
X191733D01*
X194272Y480057D01*
Y472440D01*
X201890Y485136D02*
Y482597D01*
X199351D01*
X204429D01*
X201890D01*
Y474979D01*
X204429Y472440D01*
X212047Y482597D02*
Y472440D01*
Y477518D01*
X214586Y480057D01*
X217125Y482597D01*
X219664D01*
X229821Y472440D02*
X234899D01*
X237438Y474979D01*
Y480057D01*
X234899Y482597D01*
X229821D01*
X227281Y480057D01*
Y474979D01*
X229821Y472440D01*
X242517D02*
X247595D01*
X245056D01*
Y487675D01*
X242517D01*
X262830Y472440D02*
X257752D01*
X255212Y474979D01*
Y480057D01*
X257752Y482597D01*
X262830D01*
X265369Y480057D01*
Y477518D01*
X255212D01*
X270448Y482597D02*
Y472440D01*
Y477518D01*
X272987Y480057D01*
X275526Y482597D01*
X278065D01*
X300918Y485136D02*
X303457Y487675D01*
X308535D01*
X311074Y485136D01*
Y474979D01*
X308535Y472440D01*
X303457D01*
X300918Y474979D01*
Y485136D01*
X316153D02*
X318692Y487675D01*
X323770D01*
X326310Y485136D01*
Y474979D01*
X323770Y472440D01*
X318692D01*
X316153Y474979D01*
Y485136D01*
X331388Y472440D02*
X336466D01*
X333927D01*
Y487675D01*
X331388Y485136D01*
X359319Y472440D02*
Y487675D01*
X366936D01*
X369476Y485136D01*
Y480057D01*
X366936Y477518D01*
X359319D01*
X364397D02*
X369476Y472440D01*
X382171D02*
X377093D01*
X374554Y474979D01*
Y480057D01*
X377093Y482597D01*
X382171D01*
X384711Y480057D01*
Y477518D01*
X374554D01*
X389789Y482597D02*
X394867Y472440D01*
X399946Y482597D01*
X405024Y472440D02*
X410102D01*
X407563D01*
Y487675D01*
X405024Y485136D01*
X547367Y152396D02*
X544827Y154935D01*
X539749D01*
X537210Y152396D01*
Y142239D01*
X539749Y139700D01*
X544827D01*
X547367Y142239D01*
X552445Y139700D02*
Y149857D01*
X557523Y154935D01*
X562602Y149857D01*
Y139700D01*
Y147317D01*
X552445D01*
X567680Y139700D02*
Y154935D01*
X577837Y139700D01*
Y154935D01*
X657860Y307335D02*
Y292100D01*
X668017D01*
X632460Y307335D02*
Y292100D01*
Y299718D01*
X642617D01*
Y307335D01*
Y292100D01*
X693424Y325117D02*
X690885Y322578D01*
Y317499D01*
X693424Y314960D01*
X703581D01*
X706120Y317499D01*
Y322578D01*
X703581Y325117D01*
X706120Y330195D02*
X695963D01*
X690885Y335273D01*
X695963Y340352D01*
X706120D01*
X698503D01*
Y330195D01*
X706120Y345430D02*
X690885D01*
X706120Y355587D01*
X690885D01*
X21590Y298450D02*
Y313685D01*
X29207D01*
X31747Y311146D01*
Y306068D01*
X29207Y303528D01*
X21590D01*
X26668D02*
X31747Y298450D01*
X46982Y311146D02*
X44443Y313685D01*
X39364D01*
X36825Y311146D01*
Y308607D01*
X39364Y306068D01*
X44443D01*
X46982Y303528D01*
Y300989D01*
X44443Y298450D01*
X39364D01*
X36825Y300989D01*
X52060Y313685D02*
X62217D01*
X57139D01*
Y298450D01*
X490220Y105406D02*
X492759Y107945D01*
X497837D01*
X500377Y105406D01*
Y102867D01*
X497837Y100328D01*
X495298D01*
X497837D01*
X500377Y97788D01*
Y95249D01*
X497837Y92710D01*
X492759D01*
X490220Y95249D01*
X505455Y92710D02*
Y95249D01*
X507994D01*
Y92710D01*
X505455D01*
X518151Y105406D02*
X520690Y107945D01*
X525769D01*
X528308Y105406D01*
Y102867D01*
X525769Y100328D01*
X523229D01*
X525769D01*
X528308Y97788D01*
Y95249D01*
X525769Y92710D01*
X520690D01*
X518151Y95249D01*
X533386Y107945D02*
Y97788D01*
X538464Y92710D01*
X543543Y97788D01*
Y107945D01*
X496567Y120650D02*
Y135885D01*
X488950Y128267D01*
X499107D01*
X497837Y161285D02*
X487680D01*
Y153667D01*
X492758Y156207D01*
X495298D01*
X497837Y153667D01*
Y148589D01*
X495298Y146050D01*
X490219D01*
X487680Y148589D01*
Y184146D02*
X490219Y186685D01*
X495298D01*
X497837Y184146D01*
Y181607D01*
X495298Y179067D01*
X497837Y176528D01*
Y173989D01*
X495298Y171450D01*
X490219D01*
X487680Y173989D01*
Y176528D01*
X490219Y179067D01*
X487680Y181607D01*
Y184146D01*
X490219Y179067D02*
X495298D01*
X487680Y200659D02*
X490219Y198120D01*
X495298D01*
X497837Y200659D01*
Y210816D01*
X495298Y213355D01*
X490219D01*
X487680Y210816D01*
Y208277D01*
X490219Y205737D01*
X497837D01*
X487680Y224790D02*
X492758D01*
X490219D01*
Y240025D01*
X487680Y237486D01*
X500376D02*
X502915Y240025D01*
X507993D01*
X510533Y237486D01*
Y227329D01*
X507993Y224790D01*
X502915D01*
X500376Y227329D01*
Y237486D01*
X490224Y255267D02*
X487685Y252728D01*
Y247649D01*
X490224Y245110D01*
X500381D01*
X502920Y247649D01*
Y252728D01*
X500381Y255267D01*
X495303D01*
Y250188D01*
X502920Y260345D02*
X487685D01*
X502920Y270502D01*
X487685D01*
Y275580D02*
X502920D01*
Y283198D01*
X500381Y285737D01*
X490224D01*
X487685Y283198D01*
Y275580D01*
X109220Y105406D02*
X111759Y107945D01*
X116838D01*
X119377Y105406D01*
Y95249D01*
X116838Y92710D01*
X111759D01*
X109220Y95249D01*
Y105406D01*
Y119380D02*
X114298D01*
X111759D01*
Y134615D01*
X109220Y132076D01*
X119377Y144780D02*
X109220D01*
X119377Y154937D01*
Y157476D01*
X116838Y160015D01*
X111759D01*
X109220Y157476D01*
Y182876D02*
X111759Y185415D01*
X116838D01*
X119377Y182876D01*
Y180337D01*
X116838Y177798D01*
X114298D01*
X116838D01*
X119377Y175258D01*
Y172719D01*
X116838Y170180D01*
X111759D01*
X109220Y172719D01*
X93980Y210815D02*
X104137D01*
X99058D01*
Y195580D01*
X109215Y210815D02*
X119372Y195580D01*
Y210815D02*
X109215Y195580D01*
X93980Y220980D02*
Y236215D01*
X101597D01*
X104137Y233676D01*
Y228598D01*
X101597Y226058D01*
X93980D01*
X99058D02*
X104137Y220980D01*
X109215Y236215D02*
X119372Y220980D01*
Y236215D02*
X109215Y220980D01*
X91437Y260346D02*
X88897Y262885D01*
X83819D01*
X81280Y260346D01*
Y250189D01*
X83819Y247650D01*
X88897D01*
X91437Y250189D01*
Y255268D01*
X86358D01*
X96515Y247650D02*
Y262885D01*
X106672Y247650D01*
Y262885D01*
X111750D02*
Y247650D01*
X119368D01*
X121907Y250189D01*
Y260346D01*
X119368Y262885D01*
X111750D01*
X261617Y257805D02*
X251460D01*
Y250187D01*
X256538Y252727D01*
X259077D01*
X261617Y250187D01*
Y245109D01*
X259077Y242570D01*
X253999D01*
X251460Y245109D01*
X266695Y242570D02*
Y245109D01*
X269234D01*
Y242570D01*
X266695D01*
X279391Y255266D02*
X281930Y257805D01*
X287008D01*
X289548Y255266D01*
Y245109D01*
X287008Y242570D01*
X281930D01*
X279391Y245109D01*
Y255266D01*
X294626Y257805D02*
Y247648D01*
X299704Y242570D01*
X304783Y247648D01*
Y257805D01*
X488950Y388620D02*
Y393698D01*
Y391159D01*
X473715D01*
X476254Y388620D01*
X488950Y411473D02*
Y401316D01*
X478793Y411473D01*
X476254D01*
X473715Y408933D01*
Y403855D01*
X476254Y401316D01*
X473715Y416551D02*
X483872D01*
X488950Y421629D01*
X483872Y426708D01*
X473715D01*
X414024Y213360D02*
X411485Y215899D01*
Y220977D01*
X414024Y223517D01*
X416563D01*
X419103Y220977D01*
Y218438D01*
Y220977D01*
X421642Y223517D01*
X424181D01*
X426720Y220977D01*
Y215899D01*
X424181Y213360D01*
X426720Y228595D02*
X424181D01*
Y231134D01*
X426720D01*
Y228595D01*
X414024Y241291D02*
X411485Y243830D01*
Y248909D01*
X414024Y251448D01*
X416563D01*
X419103Y248909D01*
Y246369D01*
Y248909D01*
X421642Y251448D01*
X424181D01*
X426720Y248909D01*
Y243830D01*
X424181Y241291D01*
X411485Y256526D02*
X421642D01*
X426720Y261604D01*
X421642Y266683D01*
X411485D01*
Y295907D02*
Y285750D01*
X419103D01*
X416563Y290828D01*
Y293368D01*
X419103Y295907D01*
X424181D01*
X426720Y293368D01*
Y288289D01*
X424181Y285750D01*
X426720Y300985D02*
X424181D01*
Y303524D01*
X426720D01*
Y300985D01*
X414024Y313681D02*
X411485Y316220D01*
Y321298D01*
X414024Y323838D01*
X424181D01*
X426720Y321298D01*
Y316220D01*
X424181Y313681D01*
X414024D01*
X411485Y328916D02*
X421642D01*
X426720Y333994D01*
X421642Y339073D01*
X411485D01*
X430530Y374650D02*
Y379728D01*
Y377189D01*
X415295D01*
X417834Y374650D01*
X430530Y397503D02*
Y387346D01*
X420373Y397503D01*
X417834D01*
X415295Y394963D01*
Y389885D01*
X417834Y387346D01*
X415295Y402581D02*
X425452D01*
X430530Y407659D01*
X425452Y412738D01*
X415295D01*
X40471Y179557D02*
X35392D01*
X37932D01*
Y166862D01*
X35392Y164322D01*
X32853D01*
X30314Y166862D01*
X45549Y177018D02*
X48088Y179557D01*
X53167D01*
X55706Y177018D01*
Y174479D01*
X53167Y171940D01*
X50627D01*
X53167D01*
X55706Y169401D01*
Y166862D01*
X53167Y164322D01*
X48088D01*
X45549Y166862D01*
X589281Y328927D02*
X584202D01*
X586742D01*
Y316232D01*
X584202Y313692D01*
X581663D01*
X579124Y316232D01*
X594359Y326388D02*
X596898Y328927D01*
X601977D01*
X604516Y326388D01*
Y323849D01*
X601977Y321310D01*
X604516Y318771D01*
Y316232D01*
X601977Y313692D01*
X596898D01*
X594359Y316232D01*
Y318771D01*
X596898Y321310D01*
X594359Y323849D01*
Y326388D01*
X596898Y321310D02*
X601977D01*
X207010Y184145D02*
Y171449D01*
X209549Y168910D01*
X214627D01*
X217167Y171449D01*
Y184145D01*
X229863Y168910D02*
Y184145D01*
X222245Y176528D01*
X232402D01*
X215664Y407207D02*
Y394512D01*
X218203Y391973D01*
X223282D01*
X225821Y394512D01*
Y407207D01*
X230899Y404668D02*
X233438Y407207D01*
X238517D01*
X241056Y404668D01*
Y402129D01*
X238517Y399590D01*
X235977D01*
X238517D01*
X241056Y397051D01*
Y394512D01*
X238517Y391973D01*
X233438D01*
X230899Y394512D01*
X530864Y327658D02*
Y314962D01*
X533403Y312423D01*
X538482D01*
X541021Y314962D01*
Y327658D01*
X556256Y312423D02*
X546099D01*
X556256Y322579D01*
Y325118D01*
X553717Y327658D01*
X548638D01*
X546099Y325118D01*
X33528Y413507D02*
Y400811D01*
X36067Y398272D01*
X41146D01*
X43685Y400811D01*
Y413507D01*
X48763Y398272D02*
X53841D01*
X51302D01*
Y413507D01*
X48763Y410968D01*
X345438Y290834D02*
X330202D01*
Y298452D01*
X332742Y300991D01*
X337820D01*
X340359Y298452D01*
Y290834D01*
Y295912D02*
X345438Y300991D01*
X330202Y306069D02*
Y316226D01*
X332742D01*
X342898Y306069D01*
X345438D01*
X348122Y238764D02*
X332887D01*
Y246382D01*
X335426Y248921D01*
X340505D01*
X343044Y246382D01*
Y238764D01*
Y243843D02*
X348122Y248921D01*
X332887Y264156D02*
X335426Y259077D01*
X340505Y253999D01*
X345583D01*
X348122Y256538D01*
Y261617D01*
X345583Y264156D01*
X343044D01*
X340505Y261617D01*
Y253999D01*
X348863Y400054D02*
X333628D01*
Y407672D01*
X336167Y410211D01*
X341245D01*
X343784Y407672D01*
Y400054D01*
Y405132D02*
X348863Y410211D01*
X333628Y425446D02*
Y415289D01*
X341245D01*
X338706Y420368D01*
Y422907D01*
X341245Y425446D01*
X346323D01*
X348863Y422907D01*
Y417828D01*
X346323Y415289D01*
X213364Y215903D02*
Y231138D01*
X220982D01*
X223521Y228598D01*
Y223520D01*
X220982Y220981D01*
X213364D01*
X218442D02*
X223521Y215903D01*
X236217D02*
Y231138D01*
X228599Y223520D01*
X238756D01*
X605838Y238084D02*
X590603D01*
Y245701D01*
X593142Y248240D01*
X598220D01*
X600759Y245701D01*
Y238084D01*
Y243162D02*
X605838Y248240D01*
Y263475D02*
Y253319D01*
X595681Y263475D01*
X593142D01*
X590603Y260936D01*
Y255858D01*
X593142Y253319D01*
X509273Y339092D02*
Y354328D01*
X516891D01*
X519430Y351788D01*
Y346710D01*
X516891Y344171D01*
X509273D01*
X514352D02*
X519430Y339092D01*
X524508D02*
X529587D01*
X527048D01*
Y354328D01*
X524508Y351788D01*
X27833Y209048D02*
X22754D01*
X25294D01*
Y196352D01*
X22754Y193813D01*
X20215D01*
X17676Y196352D01*
X32911Y193813D02*
X37990D01*
X35450D01*
Y209048D01*
X32911Y206508D01*
X45607D02*
X48146Y209048D01*
X53225D01*
X55764Y206508D01*
Y196352D01*
X53225Y193813D01*
X48146D01*
X45607Y196352D01*
Y206508D01*
X603251Y173988D02*
X598172D01*
X600712D01*
Y161292D01*
X598172Y158752D01*
X595633D01*
X593094Y161292D01*
X608329D02*
X610868Y158752D01*
X615947D01*
X618486Y161292D01*
Y171448D01*
X615947Y173988D01*
X610868D01*
X608329Y171448D01*
Y168909D01*
X610868Y166370D01*
X618486D01*
X228601Y309877D02*
X223522D01*
X226062D01*
Y297182D01*
X223522Y294643D01*
X220983D01*
X218444Y297182D01*
X233679Y309877D02*
X243836D01*
Y307338D01*
X233679Y297182D01*
Y294643D01*
X492761Y453387D02*
X487682D01*
X490222D01*
Y440692D01*
X487682Y438153D01*
X485143D01*
X482604Y440692D01*
X507996Y453387D02*
X502918Y450848D01*
X497839Y445770D01*
Y440692D01*
X500378Y438153D01*
X505457D01*
X507996Y440692D01*
Y443231D01*
X505457Y445770D01*
X497839D01*
X138427Y303525D02*
X133348D01*
X135887D01*
Y290829D01*
X133348Y288290D01*
X130809D01*
X128270Y290829D01*
X153662Y303525D02*
X143505D01*
Y295907D01*
X148583Y298447D01*
X151123D01*
X153662Y295907D01*
Y290829D01*
X151123Y288290D01*
X146044D01*
X143505Y290829D01*
X452121Y300987D02*
X447043D01*
X449582D01*
Y288292D01*
X447043Y285753D01*
X444503D01*
X441964Y288292D01*
X464817Y285753D02*
Y300987D01*
X457199Y293370D01*
X467356D01*
X718821Y160018D02*
X713743D01*
X716282D01*
Y147322D01*
X713743Y144782D01*
X711203D01*
X708664Y147322D01*
X734056Y144782D02*
X723899D01*
X734056Y154939D01*
Y157478D01*
X731517Y160018D01*
X726438D01*
X723899Y157478D01*
X725170Y363218D02*
X720092D01*
X722631D01*
Y350522D01*
X720092Y347982D01*
X717552D01*
X715013Y350522D01*
X730248Y347982D02*
X735327D01*
X732788D01*
Y363218D01*
X730248Y360678D01*
X366294Y279398D02*
Y264163D01*
X373912D01*
X376451Y266702D01*
Y276858D01*
X373912Y279398D01*
X366294D01*
X381529Y276858D02*
X384068Y279398D01*
X389147D01*
X391686Y276858D01*
Y274319D01*
X389147Y271780D01*
X386607D01*
X389147D01*
X391686Y269241D01*
Y266702D01*
X389147Y264163D01*
X384068D01*
X381529Y266702D01*
X366294Y205737D02*
Y190502D01*
X373912D01*
X376451Y193042D01*
Y203198D01*
X373912Y205737D01*
X366294D01*
X391686Y190502D02*
X381529D01*
X391686Y200659D01*
Y203198D01*
X389147Y205737D01*
X384068D01*
X381529Y203198D01*
X368303Y368298D02*
Y353063D01*
X375921D01*
X378460Y355602D01*
Y365758D01*
X375921Y368298D01*
X368303D01*
X383538Y353063D02*
X388617D01*
X386078D01*
Y368298D01*
X383538Y365758D01*
X308613Y201928D02*
X306074Y204468D01*
X300995D01*
X298456Y201928D01*
Y191772D01*
X300995Y189233D01*
X306074D01*
X308613Y191772D01*
X313691Y189233D02*
X318770D01*
X316230D01*
Y204468D01*
X313691Y201928D01*
X326387D02*
X328926Y204468D01*
X334005D01*
X336544Y201928D01*
Y191772D01*
X334005Y189233D01*
X328926D01*
X326387Y191772D01*
Y201928D01*
X411481Y85088D02*
X408942Y87627D01*
X403863D01*
X401324Y85088D01*
Y74932D01*
X403863Y72393D01*
X408942D01*
X411481Y74932D01*
X416559D02*
X419098Y72393D01*
X424177D01*
X426716Y74932D01*
Y85088D01*
X424177Y87627D01*
X419098D01*
X416559Y85088D01*
Y82549D01*
X419098Y80010D01*
X426716D01*
X483871Y34288D02*
X481332Y36827D01*
X476253D01*
X473714Y34288D01*
Y24132D01*
X476253Y21593D01*
X481332D01*
X483871Y24132D01*
X488949Y34288D02*
X491488Y36827D01*
X496567D01*
X499106Y34288D01*
Y31749D01*
X496567Y29210D01*
X499106Y26671D01*
Y24132D01*
X496567Y21593D01*
X491488D01*
X488949Y24132D01*
Y26671D01*
X491488Y29210D01*
X488949Y31749D01*
Y34288D01*
X491488Y29210D02*
X496567D01*
X340361Y342898D02*
X337822Y345438D01*
X332743D01*
X330204Y342898D01*
Y332742D01*
X332743Y330202D01*
X337822D01*
X340361Y332742D01*
X345439Y345438D02*
X355596D01*
Y342898D01*
X345439Y332742D01*
Y330202D01*
X281941Y410208D02*
X279402Y412747D01*
X274323D01*
X271784Y410208D01*
Y400052D01*
X274323Y397513D01*
X279402D01*
X281941Y400052D01*
X297176Y412747D02*
X292097Y410208D01*
X287019Y405130D01*
Y400052D01*
X289558Y397513D01*
X294637D01*
X297176Y400052D01*
Y402591D01*
X294637Y405130D01*
X287019D01*
X672372Y192731D02*
X669832Y190191D01*
Y185113D01*
X672372Y182574D01*
X682528D01*
X685067Y185113D01*
Y190191D01*
X682528Y192731D01*
X669832Y207966D02*
Y197809D01*
X677450D01*
X674911Y202887D01*
Y205427D01*
X677450Y207966D01*
X682528D01*
X685067Y205427D01*
Y200348D01*
X682528Y197809D01*
X594362Y212091D02*
X591823Y209552D01*
Y204473D01*
X594362Y201934D01*
X604518D01*
X607057Y204473D01*
Y209552D01*
X604518Y212091D01*
X607057Y224787D02*
X591823D01*
X599440Y217169D01*
Y227326D01*
X492758Y360679D02*
X495298Y363218D01*
Y368297D01*
X492758Y370836D01*
X482602D01*
X480062Y368297D01*
Y363218D01*
X482602Y360679D01*
X492758Y355601D02*
X495298Y353062D01*
Y347983D01*
X492758Y345444D01*
X490219D01*
X487680Y347983D01*
Y350522D01*
Y347983D01*
X485141Y345444D01*
X482602D01*
X480062Y347983D01*
Y353062D01*
X482602Y355601D01*
X167641Y335278D02*
X165102Y337817D01*
X160023D01*
X157484Y335278D01*
Y325122D01*
X160023Y322583D01*
X165102D01*
X167641Y325122D01*
X182876Y322583D02*
X172719D01*
X182876Y332739D01*
Y335278D01*
X180337Y337817D01*
X175258D01*
X172719Y335278D01*
X165100Y412748D02*
X162561Y415288D01*
X157483D01*
X154943Y412748D01*
Y402592D01*
X157483Y400052D01*
X162561D01*
X165100Y402592D01*
X170178Y400052D02*
X175257D01*
X172718D01*
Y415288D01*
X170178Y412748D01*
D15*
X150900Y318240D02*
Y363960D01*
X128500Y318240D02*
Y363960D01*
X150900D01*
X128500Y318240D02*
X150900D01*
X128500Y417300D02*
X150900D01*
X128500Y371580D02*
X150900D01*
Y417300D01*
X128500Y371580D02*
Y417300D01*
X302490Y368830D02*
Y414550D01*
X324890Y368830D02*
Y414550D01*
X302490Y368830D02*
X324890D01*
X302490Y414550D02*
X324890D01*
Y316970D02*
Y362690D01*
X302490Y316970D02*
Y362690D01*
X324890D01*
X302490Y316970D02*
X324890D01*
X399665Y397740D02*
Y420140D01*
X353945Y397740D02*
Y420140D01*
Y397740D02*
X399665D01*
X353945Y420140D02*
X399665D01*
X364490Y393700D02*
X407670D01*
X364490Y373380D02*
X407670D01*
X364490D02*
Y393700D01*
X407670Y373380D02*
Y393700D01*
X400050Y311380D02*
Y333780D01*
X354330Y311380D02*
Y333780D01*
Y311380D02*
X400050D01*
X354330Y333780D02*
X400050D01*
X611100Y282680D02*
X633500D01*
X611100Y236960D02*
X633500D01*
Y282680D01*
X611100Y236960D02*
Y282680D01*
Y182350D02*
Y228070D01*
X633500Y182350D02*
Y228070D01*
X611100Y182350D02*
X633500D01*
X611100Y228070D02*
X633500D01*
X642850Y228070D02*
X665250D01*
X642850Y182350D02*
X665250D01*
Y228070D01*
X642850Y182350D02*
Y228070D01*
Y282680D02*
X665250D01*
X642850Y236960D02*
X665250D01*
Y282680D01*
X642850Y236960D02*
Y282680D01*
X353945Y260120D02*
X399665D01*
X353945Y237720D02*
X399665D01*
X353945D02*
Y260120D01*
X399665Y237720D02*
Y260120D01*
X407670Y212090D02*
Y232410D01*
X364490Y212090D02*
Y232410D01*
Y212090D02*
X407670D01*
X364490Y232410D02*
X407670D01*
Y285750D02*
Y306070D01*
X364490Y285750D02*
Y306070D01*
Y285750D02*
X407670D01*
X364490Y306070D02*
X407670D01*
X533400Y335510D02*
Y357910D01*
X579120Y335510D02*
Y357910D01*
X533400D02*
X579120D01*
X533400Y335510D02*
X579120D01*
X293240Y187220D02*
Y232940D01*
X270840Y187220D02*
Y232940D01*
X293240D01*
X270840Y187220D02*
X293240D01*
X242840D02*
Y232940D01*
X265240Y187220D02*
Y232940D01*
X242840Y187220D02*
X265240D01*
X242840Y232940D02*
X265240D01*
X436650Y20850D02*
Y66570D01*
X414250Y20850D02*
Y66570D01*
X436650D01*
X414250Y20850D02*
X436650D01*
X469670Y20320D02*
Y66040D01*
X447271Y20320D02*
Y66040D01*
X469670D01*
X447271Y20320D02*
X469670D01*
X477750Y290300D02*
Y336020D01*
X500150Y290300D02*
Y336020D01*
X477750Y290300D02*
X500150D01*
X477750Y336020D02*
X500150D01*
D16*
X734750Y369700D02*
Y547100D01*
X581750Y369700D02*
X734750D01*
X581750D02*
Y547100D01*
X734750D01*
X212260Y-41580D02*
X392260D01*
X212260D02*
Y21720D01*
Y158420D02*
X392260D01*
Y-41580D02*
Y21720D01*
X212260Y157120D02*
Y158420D01*
X392260Y157120D02*
Y158420D01*
X581750Y-39700D02*
Y137700D01*
X734750D01*
Y-39700D02*
Y137700D01*
X581750Y-39700D02*
X734750D01*
M02*
