G04*
G04 #@! TF.GenerationSoftware,Altium Limited,Altium Designer,24.1.2 (44)*
G04*
G04 Layer_Physical_Order=4*
G04 Layer_Color=16711680*
%FSLAX44Y44*%
%MOMM*%
G71*
G04*
G04 #@! TF.SameCoordinates,CB13D785-5938-4027-9B75-91E117B44D59*
G04*
G04*
G04 #@! TF.FilePolarity,Positive*
G04*
G01*
G75*
%ADD14C,0.2540*%
%ADD48C,0.1482*%
%ADD49O,1.8500X1.0500*%
%ADD50C,6.0000*%
%ADD51O,2.3500X2.0000*%
%ADD52R,1.2680X1.2680*%
%ADD53C,1.2680*%
%ADD54C,3.2000*%
%ADD55O,2.0000X2.3500*%
%ADD56C,0.4500*%
D14*
X176143Y99805D02*
X199390D01*
X165398Y89060D02*
X176143Y99805D01*
X98900Y89060D02*
X165398D01*
X62230Y125730D02*
X98900Y89060D01*
X175761Y94035D02*
X199390D01*
X166976Y85250D02*
X175761Y94035D01*
X94550Y85250D02*
X166976D01*
X58150Y121650D02*
X94550Y85250D01*
X406775Y121459D02*
X450576Y165260D01*
X464145D02*
X483035Y184150D01*
X450576Y165260D02*
X464145D01*
X406775Y115945D02*
Y121459D01*
X483035Y184150D02*
X561340D01*
X406400Y115570D02*
X406775Y115945D01*
X406400Y101600D02*
X444660Y139860D01*
X536534D01*
X575630Y178956D01*
Y197010D01*
X563090Y209550D02*
X575630Y197010D01*
X561340Y209550D02*
X563090D01*
X251247Y195367D02*
X422217D01*
X455450Y228600D01*
X220980Y165100D02*
X251247Y195367D01*
X455450Y228600D02*
X457200D01*
D48*
X605790Y260350D02*
X650240D01*
X596900Y269240D02*
X605790Y260350D01*
D49*
X16510Y86360D02*
D03*
Y157860D02*
D03*
D50*
X36830Y36830D02*
D03*
X541020Y471170D02*
D03*
Y36830D02*
D03*
X36830Y471170D02*
D03*
D51*
X561340Y184150D02*
D03*
Y209550D02*
D03*
X457200Y254000D02*
D03*
Y228600D02*
D03*
Y203200D02*
D03*
Y177800D02*
D03*
Y152400D02*
D03*
Y127000D02*
D03*
Y101600D02*
D03*
X45720Y265430D02*
D03*
Y240030D02*
D03*
X152400Y254000D02*
D03*
Y228600D02*
D03*
Y203200D02*
D03*
Y177800D02*
D03*
Y152400D02*
D03*
Y127000D02*
D03*
Y101600D02*
D03*
D52*
X702700Y407400D02*
D03*
X613800Y100000D02*
D03*
D53*
X690000Y382000D02*
D03*
X677300Y407400D02*
D03*
X664600Y382000D02*
D03*
X651900Y407400D02*
D03*
X639200Y382000D02*
D03*
X626500Y407400D02*
D03*
X613800Y382000D02*
D03*
X702700Y125400D02*
D03*
X626500D02*
D03*
X639200Y100000D02*
D03*
X651900Y125400D02*
D03*
X664600Y100000D02*
D03*
X677300Y125400D02*
D03*
X690000Y100000D02*
D03*
D54*
X715400Y470900D02*
D03*
X601100D02*
D03*
Y36500D02*
D03*
X715400D02*
D03*
D55*
X275590Y288290D02*
D03*
X300990D02*
D03*
X662000Y337000D02*
D03*
X636600D02*
D03*
X521970Y407670D02*
D03*
X547370D02*
D03*
D56*
X63500Y102870D02*
D03*
X199390Y99805D02*
D03*
Y94035D02*
D03*
X58150Y121650D02*
D03*
X62230Y125730D02*
D03*
X303530Y116840D02*
D03*
X281940D02*
D03*
Y66040D02*
D03*
X406400Y115570D02*
D03*
Y101600D02*
D03*
X220980Y165100D02*
D03*
X596900Y269240D02*
D03*
X650240Y260350D02*
D03*
X549910Y322580D02*
D03*
X424180Y383540D02*
D03*
X303530Y66040D02*
D03*
X518160Y320040D02*
D03*
X389890Y168910D02*
D03*
X406400Y201930D02*
D03*
X303530Y223520D02*
D03*
X410210Y46990D02*
D03*
X478790Y72390D02*
D03*
X467360Y339090D02*
D03*
X405130Y280670D02*
D03*
X341630Y326390D02*
D03*
X313690Y426720D02*
D03*
X106680Y309880D02*
D03*
X160020D02*
D03*
X139700Y430530D02*
D03*
X650240Y171450D02*
D03*
X600710Y189230D02*
D03*
X407670Y429260D02*
D03*
X336550Y386080D02*
D03*
X170180Y384810D02*
D03*
X466090Y312420D02*
D03*
X378460Y344170D02*
D03*
X335280Y350520D02*
D03*
X414020Y245110D02*
D03*
X240030D02*
D03*
X480060Y48260D02*
D03*
X171450Y349250D02*
D03*
M02*
