M48
;Layer_Color=9474304
;FILE_FORMAT=4:4
METRIC,LZ
;TYPE=PLATED
T01F00S00C0.3000
T03F00S00C0.7600
T04F00S00C1.1500
T05F00S00C3.2000
;TYPE=NON_PLATED
T06F00S00C3.2000
%
T01
X000635Y0010287
X0005815Y0012165
X0006223Y0012573
X0019939Y00099805
Y00094035
X0022098Y001651
X0024003Y0024511
X0016002Y0030988
X0017145Y0034925
X0017018Y0038481
X0010668Y0030988
X0028194Y0011684
Y0006604
X0030353
Y0011684
X004064Y0011557
Y001016
X0041021Y0004699
X0048006Y0004826
X0047879Y0007239
X0038989Y0016891
X004064Y0020193
X0041402Y0024511
X0040513Y0028067
X0037846Y0034417
X0033528Y0035052
X0034163Y0032639
X0033655Y0038608
X0031369Y0042672
X0042418Y0038354
X0046736Y0033909
X0046609Y0031242
X0051816Y0032004
X0054991Y0032258
X005969Y0026924
X0065024Y0026035
Y0017145
X0060071Y0018923
X0030353Y0022352
X0040767Y0042926
X001397Y0043053
T03
X006138Y001
X006392
X006646
X006519Y001254
X006265
X006773
X006646Y00382
X006392
X006138
X006265Y004074
X006519
X006773
X007027
X0069Y00382
X007027Y001254
X0069Y001
T04
X001524Y001016
Y00127
Y001524
Y001778
Y002032
Y002286
Y00254
X0004572Y0026543
Y0024003
X0027559Y0028829
X0030099
X004572Y00254
Y002286
Y002032
Y001778
Y001524
Y00127
Y001016
X0056134Y0018415
Y0020955
X006366Y00337
X00662
X0054737Y0040767
X0052197
T05
X0003683Y0003683
X0054102
Y0047117
X0003683
T06
X006011Y000365
X007154
Y004709
X006011
M30
