G04*
G04 #@! TF.GenerationSoftware,Altium Limited,Altium Designer,24.1.2 (44)*
G04*
G04 Layer_Color=8421504*
%FSLAX44Y44*%
%MOMM*%
G71*
G04*
G04 #@! TF.SameCoordinates,CB13D785-5938-4027-9B75-91E117B44D59*
G04*
G04*
G04 #@! TF.FilePolarity,Positive*
G04*
G01*
G75*
%ADD17R,1.4000X0.4000*%
%ADD18R,1.4500X1.1500*%
%ADD19R,1.9000X1.7500*%
%ADD20R,1.8000X1.1500*%
%ADD21R,2.2000X3.5000*%
%ADD22R,2.2000X1.2000*%
%ADD23R,1.1500X1.8000*%
%ADD24R,1.0000X1.5000*%
%ADD25R,0.7000X0.7000*%
%ADD26R,1.5000X0.9000*%
%ADD27R,1.5500X0.6000*%
D17*
X43010Y135110D02*
D03*
Y128610D02*
D03*
Y122110D02*
D03*
Y115610D02*
D03*
Y109110D02*
D03*
D18*
X38810Y145310D02*
D03*
Y98910D02*
D03*
D19*
X16510Y133360D02*
D03*
Y110860D02*
D03*
D20*
X622300Y245320D02*
D03*
Y274320D02*
D03*
X139700Y326600D02*
D03*
Y355600D02*
D03*
Y408940D02*
D03*
Y379940D02*
D03*
X313690Y406190D02*
D03*
Y377190D02*
D03*
Y325330D02*
D03*
Y354330D02*
D03*
X622300Y190710D02*
D03*
Y219710D02*
D03*
X654050D02*
D03*
Y190710D02*
D03*
Y274320D02*
D03*
Y245320D02*
D03*
X282040Y224580D02*
D03*
Y195580D02*
D03*
X254040D02*
D03*
Y224580D02*
D03*
X425450Y58210D02*
D03*
Y29210D02*
D03*
X458470Y57680D02*
D03*
Y28680D02*
D03*
X488950Y298660D02*
D03*
Y327660D02*
D03*
D21*
X44680Y355460D02*
D03*
X217920Y351790D02*
D03*
D22*
X106680Y332460D02*
D03*
Y378460D02*
D03*
Y355460D02*
D03*
X279920Y374790D02*
D03*
Y351790D02*
D03*
Y328790D02*
D03*
D23*
X391305Y408940D02*
D03*
X362305D02*
D03*
X391690Y322580D02*
D03*
X362690D02*
D03*
X362305Y248920D02*
D03*
X391305D02*
D03*
X541760Y346710D02*
D03*
X570760D02*
D03*
D24*
X399310Y383540D02*
D03*
X373350D02*
D03*
Y222250D02*
D03*
X399310D02*
D03*
X373350Y295910D02*
D03*
X399310D02*
D03*
D25*
X303660Y102420D02*
D03*
X292660D02*
D03*
X281660D02*
D03*
Y80420D02*
D03*
X292660D02*
D03*
X303660D02*
D03*
Y91420D02*
D03*
X281660D02*
D03*
X292660D02*
D03*
D26*
X214760Y29420D02*
D03*
Y44420D02*
D03*
Y59420D02*
D03*
Y74420D02*
D03*
Y89420D02*
D03*
Y104420D02*
D03*
Y119420D02*
D03*
Y134420D02*
D03*
Y149420D02*
D03*
X389760D02*
D03*
Y134420D02*
D03*
Y119420D02*
D03*
Y104420D02*
D03*
Y89420D02*
D03*
Y74420D02*
D03*
Y59420D02*
D03*
Y44420D02*
D03*
Y29420D02*
D03*
D27*
X524180Y275590D02*
D03*
X578180Y262890D02*
D03*
Y275590D02*
D03*
Y288290D02*
D03*
Y300990D02*
D03*
X524180Y262890D02*
D03*
Y288290D02*
D03*
Y300990D02*
D03*
M02*
